<mxfile host="app.diagrams.net" modified="2023-02-10T15:20:42.178Z" agent="5.0 (Windows)" etag="gdrjdz5aq7exRogRMfeb" version="20.8.20" type="github">
  <diagram name="Page-1" id="2YBvvXClWsGukQMizWep">
    <mxGraphModel dx="992" dy="525" grid="1" gridSize="10" guides="1" tooltips="1" connect="1" arrows="1" fold="1" page="1" pageScale="1" pageWidth="850" pageHeight="1100" math="0" shadow="0">
      <root>
        <mxCell id="0" />
        <mxCell id="1" parent="0" />
        <mxCell id="aM9ryv3xv72pqoxQDRHE-1" value="Register:Vue" style="shape=umlLifeline;perimeter=lifelinePerimeter;whiteSpace=wrap;html=1;container=0;dropTarget=0;collapsible=0;recursiveResize=0;outlineConnect=0;portConstraint=eastwest;newEdgeStyle={&quot;edgeStyle&quot;:&quot;elbowEdgeStyle&quot;,&quot;elbow&quot;:&quot;vertical&quot;,&quot;curved&quot;:0,&quot;rounded&quot;:0};" parent="1" vertex="1">
          <mxGeometry x="47" y="146" width="100" height="734" as="geometry" />
        </mxCell>
        <mxCell id="aM9ryv3xv72pqoxQDRHE-5" value="Vuex" style="shape=umlLifeline;perimeter=lifelinePerimeter;whiteSpace=wrap;html=1;container=0;dropTarget=0;collapsible=0;recursiveResize=0;outlineConnect=0;portConstraint=eastwest;newEdgeStyle={&quot;edgeStyle&quot;:&quot;elbowEdgeStyle&quot;,&quot;elbow&quot;:&quot;vertical&quot;,&quot;curved&quot;:0,&quot;rounded&quot;:0};" parent="1" vertex="1">
          <mxGeometry x="222" y="146" width="100" height="734" as="geometry" />
        </mxCell>
        <mxCell id="LDycZf8e1BkoxPAIRzwF-12" value="" style="html=1;points=[];perimeter=orthogonalPerimeter;outlineConnect=0;targetShapes=umlLifeline;portConstraint=eastwest;newEdgeStyle={&quot;edgeStyle&quot;:&quot;elbowEdgeStyle&quot;,&quot;elbow&quot;:&quot;vertical&quot;,&quot;curved&quot;:0,&quot;rounded&quot;:0};" vertex="1" parent="aM9ryv3xv72pqoxQDRHE-5">
          <mxGeometry x="45" y="125" width="10" height="545" as="geometry" />
        </mxCell>
        <mxCell id="LDycZf8e1BkoxPAIRzwF-4" value="" style="html=1;points=[];perimeter=orthogonalPerimeter;outlineConnect=0;targetShapes=umlLifeline;portConstraint=eastwest;newEdgeStyle={&quot;edgeStyle&quot;:&quot;elbowEdgeStyle&quot;,&quot;elbow&quot;:&quot;vertical&quot;,&quot;curved&quot;:0,&quot;rounded&quot;:0};" vertex="1" parent="1">
          <mxGeometry x="92" y="198" width="10" height="652" as="geometry" />
        </mxCell>
        <mxCell id="LDycZf8e1BkoxPAIRzwF-5" value="&lt;div&gt;fill form &lt;br&gt;&lt;/div&gt;&lt;div&gt;(email, password)&lt;/div&gt;" style="html=1;align=left;spacingLeft=2;endArrow=block;rounded=0;edgeStyle=orthogonalEdgeStyle;curved=0;rounded=0;" edge="1" parent="1">
          <mxGeometry relative="1" as="geometry">
            <mxPoint x="102" y="230" as="sourcePoint" />
            <Array as="points">
              <mxPoint x="120" y="258" />
            </Array>
            <mxPoint x="102" y="258" as="targetPoint" />
          </mxGeometry>
        </mxCell>
        <mxCell id="LDycZf8e1BkoxPAIRzwF-11" value="$store.dispatch(&quot;register&quot;)" style="html=1;verticalAlign=bottom;endArrow=block;edgeStyle=elbowEdgeStyle;elbow=vertical;curved=0;rounded=0;" edge="1" parent="1">
          <mxGeometry width="80" relative="1" as="geometry">
            <mxPoint x="102" y="288.33" as="sourcePoint" />
            <mxPoint x="267" y="288" as="targetPoint" />
          </mxGeometry>
        </mxCell>
        <mxCell id="LDycZf8e1BkoxPAIRzwF-13" value="Api REST" style="shape=umlLifeline;perimeter=lifelinePerimeter;whiteSpace=wrap;html=1;container=0;dropTarget=0;collapsible=0;recursiveResize=0;outlineConnect=0;portConstraint=eastwest;newEdgeStyle={&quot;edgeStyle&quot;:&quot;elbowEdgeStyle&quot;,&quot;elbow&quot;:&quot;vertical&quot;,&quot;curved&quot;:0,&quot;rounded&quot;:0};" vertex="1" parent="1">
          <mxGeometry x="424" y="150" width="100" height="730" as="geometry" />
        </mxCell>
        <mxCell id="LDycZf8e1BkoxPAIRzwF-14" value="" style="html=1;points=[];perimeter=orthogonalPerimeter;outlineConnect=0;targetShapes=umlLifeline;portConstraint=eastwest;newEdgeStyle={&quot;edgeStyle&quot;:&quot;elbowEdgeStyle&quot;,&quot;elbow&quot;:&quot;vertical&quot;,&quot;curved&quot;:0,&quot;rounded&quot;:0};" vertex="1" parent="LDycZf8e1BkoxPAIRzwF-13">
          <mxGeometry x="43" y="144" width="10" height="436" as="geometry" />
        </mxCell>
        <mxCell id="LDycZf8e1BkoxPAIRzwF-15" value="fetch(&quot;/register&quot;, &quot;post&quot;)" style="html=1;verticalAlign=bottom;endArrow=block;edgeStyle=elbowEdgeStyle;elbow=vertical;curved=0;rounded=0;entryX=-0.178;entryY=0.04;entryDx=0;entryDy=0;entryPerimeter=0;" edge="1" parent="1" source="LDycZf8e1BkoxPAIRzwF-12">
          <mxGeometry x="0.0022" width="80" relative="1" as="geometry">
            <mxPoint x="279" y="312" as="sourcePoint" />
            <mxPoint x="467.22" y="311.44" as="targetPoint" />
            <Array as="points">
              <mxPoint x="472" y="312" />
            </Array>
            <mxPoint as="offset" />
          </mxGeometry>
        </mxCell>
        <mxCell id="LDycZf8e1BkoxPAIRzwF-16" value="AuthController" style="shape=umlLifeline;perimeter=lifelinePerimeter;whiteSpace=wrap;html=1;container=0;dropTarget=0;collapsible=0;recursiveResize=0;outlineConnect=0;portConstraint=eastwest;newEdgeStyle={&quot;edgeStyle&quot;:&quot;elbowEdgeStyle&quot;,&quot;elbow&quot;:&quot;vertical&quot;,&quot;curved&quot;:0,&quot;rounded&quot;:0};" vertex="1" parent="1">
          <mxGeometry x="660" y="150" width="100" height="730" as="geometry" />
        </mxCell>
        <mxCell id="LDycZf8e1BkoxPAIRzwF-17" value="" style="html=1;points=[];perimeter=orthogonalPerimeter;outlineConnect=0;targetShapes=umlLifeline;portConstraint=eastwest;newEdgeStyle={&quot;edgeStyle&quot;:&quot;elbowEdgeStyle&quot;,&quot;elbow&quot;:&quot;vertical&quot;,&quot;curved&quot;:0,&quot;rounded&quot;:0};" vertex="1" parent="LDycZf8e1BkoxPAIRzwF-16">
          <mxGeometry x="45" y="161" width="10" height="389" as="geometry" />
        </mxCell>
        <mxCell id="LDycZf8e1BkoxPAIRzwF-18" value="register()" style="html=1;verticalAlign=bottom;endArrow=block;edgeStyle=elbowEdgeStyle;elbow=vertical;curved=0;rounded=0;" edge="1" parent="1" source="LDycZf8e1BkoxPAIRzwF-14">
          <mxGeometry x="0.0022" width="80" relative="1" as="geometry">
            <mxPoint x="482" y="321.93548387096774" as="sourcePoint" />
            <mxPoint x="705" y="322" as="targetPoint" />
            <mxPoint as="offset" />
          </mxGeometry>
        </mxCell>
        <mxCell id="LDycZf8e1BkoxPAIRzwF-20" value="$request-&amp;gt;validate()" style="html=1;align=left;spacingLeft=2;endArrow=block;rounded=0;edgeStyle=orthogonalEdgeStyle;curved=0;rounded=0;" edge="1" target="LDycZf8e1BkoxPAIRzwF-17" parent="1">
          <mxGeometry relative="1" as="geometry">
            <mxPoint x="715" y="339" as="sourcePoint" />
            <Array as="points">
              <mxPoint x="739" y="339" />
              <mxPoint x="739" y="369" />
            </Array>
            <mxPoint x="714" y="369.0000000000001" as="targetPoint" />
          </mxGeometry>
        </mxCell>
        <mxCell id="LDycZf8e1BkoxPAIRzwF-21" value="Model:User" style="shape=umlLifeline;perimeter=lifelinePerimeter;whiteSpace=wrap;html=1;container=0;dropTarget=0;collapsible=0;recursiveResize=0;outlineConnect=0;portConstraint=eastwest;newEdgeStyle={&quot;edgeStyle&quot;:&quot;elbowEdgeStyle&quot;,&quot;elbow&quot;:&quot;vertical&quot;,&quot;curved&quot;:0,&quot;rounded&quot;:0};" vertex="1" parent="1">
          <mxGeometry x="825" y="150" width="100" height="730" as="geometry" />
        </mxCell>
        <mxCell id="LDycZf8e1BkoxPAIRzwF-22" value="" style="html=1;points=[];perimeter=orthogonalPerimeter;outlineConnect=0;targetShapes=umlLifeline;portConstraint=eastwest;newEdgeStyle={&quot;edgeStyle&quot;:&quot;elbowEdgeStyle&quot;,&quot;elbow&quot;:&quot;vertical&quot;,&quot;curved&quot;:0,&quot;rounded&quot;:0};" vertex="1" parent="LDycZf8e1BkoxPAIRzwF-21">
          <mxGeometry x="45" y="230" width="10" height="68" as="geometry" />
        </mxCell>
        <mxCell id="LDycZf8e1BkoxPAIRzwF-23" value="create()" style="html=1;verticalAlign=bottom;endArrow=block;edgeStyle=elbowEdgeStyle;elbow=vertical;curved=0;rounded=0;" edge="1" parent="1">
          <mxGeometry x="0.0022" width="80" relative="1" as="geometry">
            <mxPoint x="715" y="400" as="sourcePoint" />
            <mxPoint x="870" y="400" as="targetPoint" />
            <mxPoint as="offset" />
          </mxGeometry>
        </mxCell>
        <mxCell id="LDycZf8e1BkoxPAIRzwF-24" value="return $user" style="html=1;verticalAlign=bottom;endArrow=open;dashed=1;endSize=8;edgeStyle=elbowEdgeStyle;elbow=vertical;curved=0;rounded=0;" edge="1" parent="1" target="LDycZf8e1BkoxPAIRzwF-17">
          <mxGeometry relative="1" as="geometry">
            <mxPoint x="869" y="437" as="sourcePoint" />
            <mxPoint x="789" y="437" as="targetPoint" />
          </mxGeometry>
        </mxCell>
        <mxCell id="LDycZf8e1BkoxPAIRzwF-25" value="Model:Cart" style="shape=umlLifeline;perimeter=lifelinePerimeter;whiteSpace=wrap;html=1;container=0;dropTarget=0;collapsible=0;recursiveResize=0;outlineConnect=0;portConstraint=eastwest;newEdgeStyle={&quot;edgeStyle&quot;:&quot;elbowEdgeStyle&quot;,&quot;elbow&quot;:&quot;vertical&quot;,&quot;curved&quot;:0,&quot;rounded&quot;:0};" vertex="1" parent="1">
          <mxGeometry x="940" y="150" width="100" height="730" as="geometry" />
        </mxCell>
        <mxCell id="LDycZf8e1BkoxPAIRzwF-26" value="" style="html=1;points=[];perimeter=orthogonalPerimeter;outlineConnect=0;targetShapes=umlLifeline;portConstraint=eastwest;newEdgeStyle={&quot;edgeStyle&quot;:&quot;elbowEdgeStyle&quot;,&quot;elbow&quot;:&quot;vertical&quot;,&quot;curved&quot;:0,&quot;rounded&quot;:0};" vertex="1" parent="LDycZf8e1BkoxPAIRzwF-25">
          <mxGeometry x="45" y="306" width="10" height="68" as="geometry" />
        </mxCell>
        <mxCell id="LDycZf8e1BkoxPAIRzwF-27" value="Model:Address" style="shape=umlLifeline;perimeter=lifelinePerimeter;whiteSpace=wrap;html=1;container=0;dropTarget=0;collapsible=0;recursiveResize=0;outlineConnect=0;portConstraint=eastwest;newEdgeStyle={&quot;edgeStyle&quot;:&quot;elbowEdgeStyle&quot;,&quot;elbow&quot;:&quot;vertical&quot;,&quot;curved&quot;:0,&quot;rounded&quot;:0};" vertex="1" parent="1">
          <mxGeometry x="1060" y="150" width="100" height="730" as="geometry" />
        </mxCell>
        <mxCell id="LDycZf8e1BkoxPAIRzwF-28" value="" style="html=1;points=[];perimeter=orthogonalPerimeter;outlineConnect=0;targetShapes=umlLifeline;portConstraint=eastwest;newEdgeStyle={&quot;edgeStyle&quot;:&quot;elbowEdgeStyle&quot;,&quot;elbow&quot;:&quot;vertical&quot;,&quot;curved&quot;:0,&quot;rounded&quot;:0};" vertex="1" parent="LDycZf8e1BkoxPAIRzwF-27">
          <mxGeometry x="45" y="373" width="10" height="68" as="geometry" />
        </mxCell>
        <mxCell id="LDycZf8e1BkoxPAIRzwF-29" value="create($user-&amp;gt;id)" style="html=1;verticalAlign=bottom;endArrow=block;edgeStyle=elbowEdgeStyle;elbow=vertical;curved=0;rounded=0;" edge="1" parent="1" target="LDycZf8e1BkoxPAIRzwF-26">
          <mxGeometry x="0.0022" width="80" relative="1" as="geometry">
            <mxPoint x="716" y="473" as="sourcePoint" />
            <mxPoint x="980" y="473" as="targetPoint" />
            <mxPoint as="offset" />
          </mxGeometry>
        </mxCell>
        <mxCell id="LDycZf8e1BkoxPAIRzwF-30" value="return $cart" style="html=1;verticalAlign=bottom;endArrow=open;dashed=1;endSize=8;edgeStyle=elbowEdgeStyle;elbow=vertical;curved=0;rounded=0;" edge="1" parent="1" source="LDycZf8e1BkoxPAIRzwF-26">
          <mxGeometry relative="1" as="geometry">
            <mxPoint x="990" y="498" as="sourcePoint" />
            <mxPoint x="715" y="498.33333333333337" as="targetPoint" />
          </mxGeometry>
        </mxCell>
        <mxCell id="LDycZf8e1BkoxPAIRzwF-31" value="create($user-&amp;gt;id)" style="html=1;verticalAlign=bottom;endArrow=block;edgeStyle=elbowEdgeStyle;elbow=vertical;curved=0;rounded=0;" edge="1" parent="1" target="LDycZf8e1BkoxPAIRzwF-28">
          <mxGeometry x="0.0022" width="80" relative="1" as="geometry">
            <mxPoint x="717" y="540" as="sourcePoint" />
            <mxPoint x="1100" y="540" as="targetPoint" />
            <mxPoint as="offset" />
          </mxGeometry>
        </mxCell>
        <mxCell id="LDycZf8e1BkoxPAIRzwF-32" value="return $address" style="html=1;verticalAlign=bottom;endArrow=open;dashed=1;endSize=8;edgeStyle=elbowEdgeStyle;elbow=vertical;curved=0;rounded=0;" edge="1" parent="1" target="LDycZf8e1BkoxPAIRzwF-17">
          <mxGeometry relative="1" as="geometry">
            <mxPoint x="1103" y="570" as="sourcePoint" />
            <mxPoint x="720" y="570" as="targetPoint" />
          </mxGeometry>
        </mxCell>
        <mxCell id="LDycZf8e1BkoxPAIRzwF-33" value="Auth" style="shape=umlLifeline;perimeter=lifelinePerimeter;whiteSpace=wrap;html=1;container=0;dropTarget=0;collapsible=0;recursiveResize=0;outlineConnect=0;portConstraint=eastwest;newEdgeStyle={&quot;edgeStyle&quot;:&quot;elbowEdgeStyle&quot;,&quot;elbow&quot;:&quot;vertical&quot;,&quot;curved&quot;:0,&quot;rounded&quot;:0};" vertex="1" parent="1">
          <mxGeometry x="1190" y="150" width="100" height="730" as="geometry" />
        </mxCell>
        <mxCell id="LDycZf8e1BkoxPAIRzwF-34" value="" style="html=1;points=[];perimeter=orthogonalPerimeter;outlineConnect=0;targetShapes=umlLifeline;portConstraint=eastwest;newEdgeStyle={&quot;edgeStyle&quot;:&quot;elbowEdgeStyle&quot;,&quot;elbow&quot;:&quot;vertical&quot;,&quot;curved&quot;:0,&quot;rounded&quot;:0};" vertex="1" parent="LDycZf8e1BkoxPAIRzwF-33">
          <mxGeometry x="45" y="440" width="10" height="79" as="geometry" />
        </mxCell>
        <mxCell id="LDycZf8e1BkoxPAIRzwF-35" value="login()" style="html=1;verticalAlign=bottom;endArrow=block;edgeStyle=elbowEdgeStyle;elbow=vertical;curved=0;rounded=0;" edge="1" parent="1" target="LDycZf8e1BkoxPAIRzwF-34">
          <mxGeometry x="0.0022" width="80" relative="1" as="geometry">
            <mxPoint x="716" y="604" as="sourcePoint" />
            <mxPoint x="876" y="604" as="targetPoint" />
            <mxPoint as="offset" />
          </mxGeometry>
        </mxCell>
        <mxCell id="LDycZf8e1BkoxPAIRzwF-36" value="return $token" style="html=1;verticalAlign=bottom;endArrow=open;dashed=1;endSize=8;edgeStyle=elbowEdgeStyle;elbow=vertical;curved=0;rounded=0;" edge="1" parent="1" target="LDycZf8e1BkoxPAIRzwF-17">
          <mxGeometry relative="1" as="geometry">
            <mxPoint x="1233" y="630.33" as="sourcePoint" />
            <mxPoint x="720" y="630" as="targetPoint" />
          </mxGeometry>
        </mxCell>
        <mxCell id="LDycZf8e1BkoxPAIRzwF-37" value="return response()-&amp;gt;json([$user, $token])" style="html=1;verticalAlign=bottom;endArrow=open;dashed=1;endSize=8;edgeStyle=elbowEdgeStyle;elbow=vertical;curved=0;rounded=0;" edge="1" parent="1" target="LDycZf8e1BkoxPAIRzwF-14">
          <mxGeometry relative="1" as="geometry">
            <mxPoint x="704" y="680" as="sourcePoint" />
            <mxPoint x="180" y="680.67" as="targetPoint" />
          </mxGeometry>
        </mxCell>
        <mxCell id="LDycZf8e1BkoxPAIRzwF-38" value="return [$user, $token]" style="html=1;verticalAlign=bottom;endArrow=open;dashed=1;endSize=8;edgeStyle=elbowEdgeStyle;elbow=vertical;curved=0;rounded=0;" edge="1" parent="1" target="LDycZf8e1BkoxPAIRzwF-12">
          <mxGeometry relative="1" as="geometry">
            <mxPoint x="468" y="716" as="sourcePoint" />
            <mxPoint x="242" y="716" as="targetPoint" />
          </mxGeometry>
        </mxCell>
        <mxCell id="LDycZf8e1BkoxPAIRzwF-42" value="this.commit(&#39;setToken&#39;, $token)" style="html=1;align=left;spacingLeft=2;endArrow=block;rounded=0;edgeStyle=orthogonalEdgeStyle;curved=0;rounded=0;" edge="1" parent="1">
          <mxGeometry relative="1" as="geometry">
            <mxPoint x="277" y="746" as="sourcePoint" />
            <Array as="points">
              <mxPoint x="305" y="776" />
            </Array>
            <mxPoint x="277" y="776" as="targetPoint" />
          </mxGeometry>
        </mxCell>
        <mxCell id="LDycZf8e1BkoxPAIRzwF-43" value="" style="html=1;verticalAlign=bottom;endArrow=open;dashed=1;endSize=8;edgeStyle=elbowEdgeStyle;elbow=vertical;curved=0;rounded=0;" edge="1" parent="1" target="LDycZf8e1BkoxPAIRzwF-4">
          <mxGeometry relative="1" as="geometry">
            <mxPoint x="267" y="802" as="sourcePoint" />
            <mxPoint x="110" y="802" as="targetPoint" />
          </mxGeometry>
        </mxCell>
      </root>
    </mxGraphModel>
  </diagram>
</mxfile>
